<?xml version="1.0" encoding="iso-8859-1"?>
<!-- Generator: Adobe Illustrator 19.0.0, SVG Export Plug-In . SVG Version: 6.00 Build 0)  -->
<svg version="1.1" id="Layer_1" xmlns="http://www.w3.org/2000/svg" xmlns:xlink="http://www.w3.org/1999/xlink" x="0px" y="0px"
	 viewBox="0 0 512 512" style="enable-background:new 0 0 512 512;" xml:space="preserve">
<rect x="201.183" y="266.806" style="fill:#F6E27D;" width="248.654" height="64.866"/>
<rect x="255.239" y="266.806" style="fill:#EFC27B;" width="194.599" height="64.866"/>
<path style="fill:#797781;" d="M455.242,320.866H184.966c-26.867,0-48.65,21.783-48.65,48.65c0,26.867,21.783,48.65,48.65,48.65
	h270.277c26.867,0,48.65-21.783,48.65-48.65C503.892,342.649,482.109,320.866,455.242,320.866z"/>
<path style="fill:#58575D;" d="M455.242,320.866H256.763v97.3h198.479c26.867,0,48.65-21.783,48.65-48.65
	C503.892,342.649,482.109,320.866,455.242,320.866z"/>
<rect x="72.975" y="212.751" style="fill:#EFC27B;" width="108.111" height="54.055"/>
<path style="fill:#F8E99B;" d="M72.975,288.433c0-39.746-26.819-73.206-63.341-83.331l11.581-41.693
	c54.784,15.185,95.004,65.405,95.004,125.025S76,398.272,21.216,413.457L9.634,371.764
	C46.156,361.639,72.975,328.179,72.975,288.433z"/>
<circle style="fill:#F6E27D;" cx="132.436" cy="239.779" r="27.028"/>
<path style="fill:#F8E99B;" d="M168.749,180.322v97.3H482.27v-97.3c0-47.767-38.722-86.488-86.488-86.488h-64.866v86.488H168.749z"
	/>
<path style="fill:#F6E27D;" d="M482.27,180.322c0-47.767-38.722-86.488-86.488-86.488h-64.866v86.488h-74.152v97.3H482.27V180.322z"
	/>
<polygon style="fill:#EDEDED;" points="267.574,180.322 235.141,180.322 235.141,115.456 267.574,104.645 "/>
<polygon style="fill:#DBDBDB;" points="267.574,104.645 256.763,108.249 256.763,180.322 267.574,180.322 "/>
<g>
	<path style="fill:#EDEDED;" d="M239.021,383.03c-7.452,0-13.514-6.062-13.514-13.514c0-7.452,6.062-13.514,13.514-13.514
		s13.514,6.062,13.514,13.514C252.535,376.968,246.472,383.03,239.021,383.03z"/>
	<path style="fill:#EDEDED;" d="M184.966,383.03c-7.452,0-13.514-6.062-13.514-13.514c0-7.452,6.062-13.514,13.514-13.514
		s13.514,6.062,13.514,13.514C198.48,376.968,192.417,383.03,184.966,383.03z"/>
</g>
<g>
	<path style="fill:#DBDBDB;" d="M347.132,383.03c-7.452,0-13.514-6.062-13.514-13.514c0-7.452,6.062-13.514,13.514-13.514
		c7.452,0,13.514,6.062,13.514,13.514C360.645,376.968,354.583,383.03,347.132,383.03z"/>
	<path style="fill:#DBDBDB;" d="M455.242,383.03c-7.452,0-13.514-6.062-13.514-13.514c0-7.452,6.062-13.514,13.514-13.514
		c7.452,0,13.514,6.062,13.514,13.514C468.756,376.968,462.693,383.03,455.242,383.03z"/>
	<path style="fill:#DBDBDB;" d="M401.187,383.03c-7.452,0-13.514-6.062-13.514-13.514c0-7.452,6.062-13.514,13.514-13.514
		c7.452,0,13.514,6.062,13.514,13.514C414.701,376.968,408.638,383.03,401.187,383.03z"/>
	<path style="fill:#DBDBDB;" d="M293.076,383.03c-7.452,0-13.514-6.062-13.514-13.514c0-7.452,6.062-13.514,13.514-13.514
		c7.452,0,13.514,6.062,13.514,13.514C306.59,376.968,300.527,383.03,293.076,383.03z"/>
</g>
<g>
	<path style="fill:#88888F;" d="M455.242,426.274H184.966c-31.297,0-56.758-25.461-56.758-56.758s25.461-56.758,56.758-56.758
		h270.277c31.297,0,56.758,25.461,56.758,56.758S486.539,426.274,455.242,426.274z M184.966,328.974
		c-22.355,0-40.541,18.186-40.541,40.541c0,22.355,18.186,40.542,40.541,40.542h270.277c22.355,0,40.542-18.186,40.542-40.542
		c0-22.355-18.186-40.541-40.542-40.541H184.966z"/>
	<path style="fill:#88888F;" d="M428.215,242.486h-205.41c-4.478,0-8.108-3.63-8.108-8.108c0-4.478,3.63-8.108,8.108-8.108h205.41
		c4.478,0,8.108,3.63,8.108,8.108C436.323,238.855,432.693,242.486,428.215,242.486z"/>
</g>
<path style="fill:#D1E5F5;" d="M395.781,137.078c23.883,0,43.244,19.362,43.244,43.244h-43.244h-64.866v-43.244
	C330.915,137.078,395.781,137.078,395.781,137.078z"/>
<rect x="213.519" y="158.696" style="fill:#88888F;" width="75.677" height="43.244"/>
<g>
	<rect x="258.287" y="158.696" style="fill:#797781;" width="30.908" height="43.244"/>
	<path style="fill:#797781;" d="M428.215,226.269H256.763v16.217h171.452c4.478,0,8.108-3.63,8.108-8.108
		C436.323,229.9,432.693,226.269,428.215,226.269z"/>
	<path style="fill:#797781;" d="M455.242,312.758H256.763v16.217h198.479c22.355,0,40.542,18.186,40.542,40.541
		c0,22.355-18.186,40.542-40.542,40.542H256.763v16.217h198.479c31.297,0,56.758-25.461,56.758-56.758
		S486.539,312.758,455.242,312.758z"/>
</g>
<path style="fill:#88888F;" d="M291.899,377.624H62.164c-4.478,0-8.108-3.63-8.108-8.108s3.63-8.108,8.108-8.108h229.735
	c4.478,0,8.108,3.63,8.108,8.108S296.377,377.624,291.899,377.624z"/>
<path style="fill:#797781;" d="M291.899,361.407h-35.136v16.217h35.136c4.478,0,8.108-3.63,8.108-8.108
	S296.377,361.407,291.899,361.407z"/>
<path style="fill:#B4D8F1;" d="M395.781,137.078h-20.097l-43.244,43.244h63.341h43.244
	C439.026,156.439,419.664,137.078,395.781,137.078z"/>
<g>
	<path style="fill:#2E2D31;" d="M503.892,410.057h-8.982c10.535-10.311,17.09-24.672,17.09-40.542
		c0-30.39-24.009-55.274-54.055-56.689V285.73h24.325c4.478,0,8.108-3.63,8.108-8.108v-97.3c0-52.161-42.437-94.597-94.597-94.597
		h-64.866c-4.478,0-8.108,3.63-8.108,8.108v43.244v35.136h-27.028V158.7c0-4.478-3.63-8.108-8.108-8.108h-13.514v-45.947
		c0-2.607-1.253-5.054-3.368-6.577c-2.114-1.523-4.833-1.938-7.305-1.115l-32.433,10.811c-3.311,1.104-5.544,4.202-5.544,7.692
		v35.136h-13.514c-4.478,0-8.108,3.63-8.108,8.108v13.514h-35.136c-4.478,0-8.108,3.63-8.108,8.108v24.325H94.306
		c-17.79-23.236-42.902-40.861-72.45-49.052c-4.309-1.191-8.78,1.33-9.979,5.643L0.295,202.932
		c-0.575,2.072-0.304,4.289,0.755,6.162c1.058,1.872,2.818,3.247,4.892,3.822c33.795,9.369,57.398,40.423,57.398,75.517
		S39.737,354.581,5.943,363.95c-2.074,0.575-3.833,1.949-4.892,3.822c-1.058,1.872-1.33,4.09-0.755,6.162l11.581,41.693
		c0.997,3.589,4.256,5.941,7.808,5.941c0.717,0,1.447-0.096,2.171-0.296c27.207-7.542,50.64-23.094,68.073-43.646h38.868
		c1.814,12.623,7.795,23.912,16.501,32.433h-8.982c-4.478,0-8.108,3.63-8.108,8.108s3.63,8.108,8.108,8.108h367.576
		c4.478,0,8.108-3.63,8.108-8.108S508.37,410.057,503.892,410.057z M441.728,312.758H209.291V285.73h232.438V312.758z
		 M339.023,145.186h56.758c16.584,0,30.522,11.549,34.191,27.028h-90.949V145.186z M241.724,121.3l16.217-5.406v34.697h-16.217
		V121.3z M220.102,166.808h59.461v27.028h-59.461L220.102,166.808L220.102,166.808z M176.857,188.43h27.028v13.514
		c0,4.478,3.63,8.108,8.108,8.108h75.677c4.478,0,8.108-3.63,8.108-8.108V188.43h35.136h108.111c0.007-0.001,0.014-0.001,0.022,0
		c4.478,0,8.108-3.63,8.108-8.108c0-0.219-0.009-0.436-0.026-0.65c-0.35-28.017-23.25-50.703-51.348-50.703h-56.758v-27.028h56.758
		c43.219,0,78.38,35.161,78.38,78.38v89.191H176.857L176.857,188.43L176.857,188.43z M122.802,239.783
		c0-10.432,8.488-18.919,18.919-18.919c10.432,0,18.919,8.488,18.919,18.919s-8.488,18.919-18.919,18.919
		S122.802,250.216,122.802,239.783z M112.138,220.864c-1.395,2.173-2.563,4.505-3.456,6.969c-1.161-2.362-2.399-4.681-3.69-6.969
		H112.138z M25.26,403.217l-7.262-26.144c36.621-13.651,61.559-49.011,61.559-88.64s-24.938-74.988-61.559-88.64l7.262-26.144
		c48.27,16.938,81.325,63.026,81.325,114.783S73.531,386.279,25.26,403.217z M122.802,288.433c0-4.549-0.252-9.054-0.694-13.514
		h38.533v2.703c0,4.478,3.63,8.108,8.108,8.108h24.325v27.028h-8.108c-28.543,0-52.223,21.182-56.17,48.65h-27.011
		C115.165,340.011,122.802,314.881,122.802,288.433z M184.966,410.057c-22.355,0-40.541-18.186-40.541-40.542
		c0-22.355,18.186-40.541,40.541-40.541h270.277c22.355,0,40.542,18.186,40.542,40.541c0,22.355-18.186,40.542-40.542,40.542
		H184.966z"/>
	<path style="fill:#2E2D31;" d="M222.804,242.486h205.41c4.478,0,8.108-3.63,8.108-8.108c0-4.478-3.63-8.108-8.108-8.108h-205.41
		c-4.478,0-8.108,3.63-8.108,8.108C214.696,238.855,218.326,242.486,222.804,242.486z"/>
</g>
<g>
</g>
<g>
</g>
<g>
</g>
<g>
</g>
<g>
</g>
<g>
</g>
<g>
</g>
<g>
</g>
<g>
</g>
<g>
</g>
<g>
</g>
<g>
</g>
<g>
</g>
<g>
</g>
<g>
</g>
</svg>
