<?xml version="1.0" encoding="utf-8"?>
<!-- Svg Vector Icons : http://www.onlinewebfonts.com/icon -->
<!DOCTYPE svg PUBLIC "-//W3C//DTD SVG 1.1//EN" "http://www.w3.org/Graphics/SVG/1.1/DTD/svg11.dtd">
<svg version="1.1" xmlns="http://www.w3.org/2000/svg" xmlns:xlink="http://www.w3.org/1999/xlink" x="0px" y="0px" viewBox="0 0 1000 1000" enable-background="new 0 0 1000 1000" xml:space="preserve">
<metadata> Svg Vector Icons : http://www.onlinewebfonts.com/icon </metadata>
<g><path d="M291,706.1c3.9,0,19.5,5.6,23.3,5.8c-17-7.4-31.1-46.7-31.1-91c15.6-109.5,42-246.2,48.9-304.7c-2-0.1-3.9-0.4-5.9-0.4c-47.1,0-88.3,23.2-97.3,54.1L122.1,794C153.3,742.2,216.4,706.1,291,706.1z M290.9,733.2c-107.4,0-178.5,73.8-162.2,149.7C142.2,946.1,214,990,290.9,990c76.9,0,148.6-43.9,162.2-107.1C469.4,807,398.2,733.2,290.9,733.2z M688,711.9c4.9-0.3,18.3-5.8,23.4-5.8c72.9,0,134.6,34.4,166.6,84.3L774.6,367.1c-9-30.9-49.4-52.2-96.5-52.2c-2,0-3.8,0.3-5.7,0.4c8.4,67.1,31.5,188.9,46.7,290.5C719.1,667.3,699.5,701.5,688,711.9z M711.2,733.2c-107.4,0-178.6,73.8-162.2,149.7C562.6,946.1,634.3,990,711.2,990s148.6-43.9,162.2-107.1C889.7,807,818.5,733.2,711.2,733.2z M501.2,438.8c81.6,0,150.8,38.6,186.6,94.7L610.1,70.7h-2.2C597.8,36.1,553.9,10,501.2,10c-52.7,0-96.7,26.1-106.8,60.7h-2.2L312,537.5C347,479.3,417.6,438.8,501.2,438.8z M682.7,637.2c18.3-85.2-61.4-168-181.7-168c-120.3,0-200,82.8-181.7,168c15.2,70.9,95.6,120.2,181.7,120.2C587.1,757.5,667.4,708.1,682.7,637.2z"/></g>
</svg>